<svg version="1.1" xmlns="http://www.w3.org/2000/svg" xmlns:xlink="http://www.w3.org/1999/xlink" xmlns:a="http://ns.adobe.com/AdobeSVGViewerExtensions/3.0/" x="0px" y="0px" width="28.2px" height="10.9px" viewBox="0 0 28.2 10.9" style="enable-background:new 0 0 28.2 10.9; fill:#FF9800;" xml:space="preserve">
  <g>
    <path d="M8.9,7.2c0,0.7-0.2,1.4-0.6,2c-0.4,0.6-0.9,1-1.5,1.3s-1.4,0.5-2.3,0.5c-1.4,0-2.5-0.5-3.3-1.4S0,7.3,0,5.7V5.2
      c0-1,0.2-1.9,0.5-2.7s0.9-1.4,1.6-1.8S3.6,0,4.5,0c1.3,0,2.3,0.3,3.1,1c0.8,0.7,1.2,1.6,1.3,2.8H6.3c0-0.6-0.2-1.1-0.5-1.4
      C5.6,2.1,5.1,2,4.5,2C3.8,2,3.4,2.2,3.1,2.7S2.6,3.9,2.6,5v0.7c0,1.1,0.1,1.9,0.4,2.4c0.3,0.5,0.8,0.7,1.5,0.7c0.6,0,1-0.1,1.3-0.4
      c0.3-0.3,0.5-0.7,0.5-1.3H8.9z"/>
    <path d="M18.6,7.2c0,0.7-0.2,1.4-0.6,2c-0.4,0.6-0.9,1-1.5,1.3c-0.7,0.3-1.4,0.5-2.3,0.5c-1.4,0-2.5-0.5-3.3-1.4S9.8,7.3,9.8,5.7
      V5.2c0-1,0.2-1.9,0.5-2.7s0.9-1.4,1.6-1.8S13.3,0,14.2,0c1.3,0,2.3,0.3,3.1,1c0.8,0.7,1.2,1.6,1.3,2.8h-2.5c0-0.6-0.2-1.1-0.5-1.4
      C15.3,2.1,14.9,2,14.2,2c-0.6,0-1.1,0.2-1.4,0.7S12.4,3.9,12.4,5v0.7c0,1.1,0.1,1.9,0.4,2.4c0.3,0.5,0.8,0.7,1.5,0.7
      c0.6,0,1-0.1,1.3-0.4c0.3-0.3,0.5-0.7,0.5-1.3H18.6z"/>
    <path d="M22.4,7.2v3.6h-2.6V0.2h4.2c0.8,0,1.5,0.1,2.2,0.4c0.6,0.3,1.1,0.7,1.4,1.3C28,2.4,28.2,3,28.2,3.7c0,1-0.4,1.9-1.1,2.5
      c-0.7,0.6-1.8,0.9-3,0.9H22.4z M22.4,5.2h1.7c0.5,0,0.9-0.1,1.1-0.4c0.3-0.2,0.4-0.6,0.4-1c0-0.5-0.1-0.9-0.4-1.2
      c-0.3-0.3-0.6-0.4-1.1-0.5h-1.7V5.2z"/>
  </g>
</svg>